{"title":"Kingdom Of Heaven (2005) [Comm] BluRay 5.1-ByteShare[UTR]","uid":14690036,"size":3729594826,"categoryP":"video","categoryS":"movies","magnet":"?xt=urn:btih:4eb6a7a4a066e644268880207bafa466f08af0d4&amp;dn=Kingdom+Of+Heaven+%282005%29+%5BComm%5D+BluRay+5.1-ByteShare%5BUTR%5D&amp;tr=udp%3A%2F%2Ftracker.leechers-paradise.org%3A6969&amp;tr=udp%3A%2F%2Fzer0day.ch%3A1337&amp;tr=udp%3A%2F%2Fopen.demonii.com%3A1337&amp;tr=udp%3A%2F%2Ftracker.coppersurfer.tk%3A6969&amp;tr=udp%3A%2F%2Fexodus.desync.com%3A6969","seeders":1,"leechers":0,"uploader":"ByteShareReUp","files":4,"time":1464190524,"description":"Kingdom Of Heaven (2005) [DC] [Comm] BluRay 5.1 1080p x265 HEVC-ByteShare[UTR]\r\n\r\nA UniTeam Release (UTR): \nhttp://extraimago.com/images/2015/09/02/gv8mpWw.png\r\n\r\nThe UniTeam release page: https://kat.cr/community/show/hevc-x265-club-uniteam-releases-thread-96931/?page=1000\r\nFor more of my uploads please go to my release page: https://kat.cr/community/show/byteshare-releases/?page=1000\r\nor use an RSS feed with your bittorrent application of choice: https://kat.cr/usearch/byteshare/?rss=1 \nhttps://kat.cr/kingdom-of-heaven-2005-dc-comm-bluray-5-1-1080p-x265-hevc-byteshare-utr-t12649455.html\r\n\r\nScreenshots: \nhttps://yuq.me/users/48/311/wBCVIlO54s.jpg \nhttps://yuq.me/users/48/311/DTa8FfYOq3.jpg \nhttps://yuq.me/users/48/311/7kB1lSxYFn.jpg \nhttps://yuq.me/users/48/311/Kh2RSOYX7I.jpg \nhttps://yuq.me/users/48/311/I4a6NunwRe.jpg\r\n\r\n\r\n\r\nFile Info:\r\nVideo\r\nFormat : HEVC\r\nFormat/Info : High Efficiency Video Coding\r\nFormat profile :   @Main\r\nCodec ID : V_MPEGH/ISO/HEVC\r\nDuration : 3h 9mn\r\nBit rate : 1 715 Kbps\r\nWidth : 1 920 pixels\r\nHeight : 1 080 pixels\r\nDisplay aspect ratio : 16:9\r\nFrame rate mode : Constant\r\nFrame rate : 23.976 (24000/1001) fps\r\nColor space : YUV\r\nChroma subsampling : 4:2:0\r\nBit depth : 8 bits\r\nBits/(Pixel*Frame) : 0.034\r\nStream size : 2.27 GiB (72%)\r\nWriting library : x265 1.9 8bit\r\nLanguage : English\r\nDefault : Yes\r\nForced : No\r\nColor range : Limited\r\nColor primaries : BT.709\r\nTransfer characteristics : BT.709\r\nMatrix coefficients : BT.709\r\n\r\nAudio #1\r\nFormat : AAC\r\nFormat/Info : Advanced Audio Codec\r\nFormat profile : HE-AAC / LC\r\nCodec ID : A_AAC\r\nDuration : 3h 9mn\r\nBit rate : 256 Kbps\r\nChannel(s) : 6 channels\r\nSampling rate : 48.0 KHz / 24.0 KHz\r\nFrame rate : 23.438 fps (1024 spf)\r\nCompression mode : Lossy\r\nDelay relative to video : -147ms\r\nStream size : 347 MiB (11%)\r\nTitle : Surround\r\nLanguage : English\r\nDefault : Yes\r\nForced : No\r\n\r\nAudio #2\r\nFormat : AAC\r\nFormat/Info : Advanced Audio Codec\r\nFormat profile : HE-AAC / LC\r\nCodec ID : A_AAC\r\nDuration : 3h 9mn\r\nBit rate : 128 Kbps\r\nChannel(s) : 2 channels\r\nChannel positions : Front: L R\r\nSampling rate : 48.0 KHz / 24.0 KHz\r\nFrame rate : 23.438 fps (1024 spf)\r\nCompression mode : Lossy\r\nDelay relative to video : -147ms\r\nStream size : 174 MiB (5%)\r\nTitle : Commentary 01\r\nLanguage : English\r\nDefault : No\r\nForced : No\r\n\r\nAudio #3\r\nFormat : AAC\r\nFormat/Info : Advanced Audio Codec\r\nFormat profile : HE-AAC / LC\r\nCodec ID : A_AAC\r\nDuration : 3h 9mn\r\nBit rate : 128 Kbps\r\nChannel(s) : 2 channels\r\nChannel positions : Front: L R\r\nSampling rate : 48.0 KHz / 24.0 KHz\r\nFrame rate : 23.438 fps (1024 spf)\r\nCompression mode : Lossy\r\nDelay relative to video : -147ms\r\nStream size : 174 MiB (5%)\r\nTitle : Commentary 02\r\nLanguage : English\r\nDefault : No\r\nForced : No\r\n\r\nAudio #4\r\nFormat : AAC\r\nFormat/Info : Advanced Audio Codec\r\nFormat profile : HE-AAC / LC\r\nCodec ID : A_AAC\r\nDuration : 3h 9mn\r\nBit rate : 128 Kbps\r\nChannel(s) : 2 channels\r\nChannel positions : Front: L R\r\nSampling rate : 48.0 KHz / 24.0 KHz\r\nFrame rate : 23.438 fps (1024 spf)\r\nCompression mode : Lossy\r\nDelay relative to video : -147ms\r\nStream size : 174 MiB (5%)\r\nTitle : Commentary 03\r\nLanguage : English\r\nDefault : No\r\nForced : No\r\n\r\nText #1\r\nFormat : PGS\r\nMuxing mode : zlib\r\nCodec ID : S_HDMV/PGS\r\nCodec ID/Info : Picture based subtitle format used on BDs/HD-DVDs\r\nDuration : 3h 7mn\r\nBit rate : 13.0 Kbps\r\nCount of elements : 2904\r\nStream size : 17.4 MiB (1%)\r\nTitle : BluRay\r\nLanguage : English\r\nDefault : No\r\nForced : No\r\n\r\nText #2\r\nFormat : ASS\r\nCodec ID : S_TEXT/ASS\r\nCodec ID/Info : Advanced Sub Station Alpha\r\nDuration : 2h 57mn\r\nBit rate : 57 bps\r\nCount of elements : 1444\r\nCompression mode : Lossless\r\nStream size : 75.0 KiB (0%)\r\nTitle : DVD Subs\r\nLanguage : English\r\nDefault : Yes\r\nForced : No\r\n\r\nText #3\r\nFormat : UTF-8\r\nCodec ID : S_TEXT/UTF8\r\nCodec ID/Info : UTF-8 Plain Text\r\nDuration : 2h 56mn\r\nBit rate : 28 bps\r\nCount of elements : 1254\r\nStream size : 36.6 KiB (0%)\r\nTitle : Eng Sytlized\r\nLanguage : English\r\nDefault : No\r\nForced : No\r\n\r\nText #4\r\nFormat : PGS\r\nMuxing mode : zlib\r\nCodec ID : S_HDMV/PGS\r\nCodec ID/Info : Picture based subtitle format used on BDs/HD-DVDs\r\nDuration : 2h 59mn\r\nBit rate : 12.2 Kbps\r\nCount of elements : 2435\r\nStream size : 15.7 MiB (0%)\r\nLanguage : French\r\nDefault : No\r\nForced : No\r\n\r\nText #5\r\nFormat : PGS\r\nMuxing mode : zlib\r\nCodec ID : S_HDMV/PGS\r\nCodec ID/Info : Picture based subtitle format used on BDs/HD-DVDs\r\nDuration : 2h 59mn\r\nBit rate : 12.0 Kbps\r\nCount of elements : 2433\r\nStream size : 15.5 MiB (0%)\r\nLanguage : Spanish\r\nDefault : No\r\nForced : No\r\n\r\nText #6\r\nFormat : VobSub\r\nMuxing mode : zlib\r\nCodec ID : S_VOBSUB\r\nCodec ID/Info : Picture based subtitle format used on DVDs\r\nDuration : 3h 0mn\r\nBit rate : 189 bps\r\nCount of elements : 856\r\nStream size : 251 KiB (0%)\r\nTitle : Enginer's Guide\r\nLanguage : English\r\nDefault : No\r\nForced : No\r\n\r\nText #7\r\nFormat : ASS\r\nCodec ID : S_TEXT/ASS\r\nCodec ID/Info : Advanced Sub Station Alpha\r\nDuration : 3h 7mn\r\nBit rate : 76 bps\r\nCount of elements : 1452\r\nCompression mode : Lossless\r\nStream size : 105 KiB (0%)\r\nLanguage : English\r\nDefault : No\r\nForced : No\r\n\r\n\r\nPlease seed &amp; leave feedback","torrent":{"xt":"urn:btih:4eb6a7a4a066e644268880207bafa466f08af0d4","amp;dn":"Kingdom+Of+Heaven+%282005%29+%5BComm%5D+BluRay+5.1-ByteShare%5BUTR%5D","amp;tr":["udp%3A%2F%2Ftracker.leechers-paradise.org%3A6969","udp%3A%2F%2Fzer0day.ch%3A1337","udp%3A%2F%2Fopen.demonii.com%3A1337","udp%3A%2F%2Ftracker.coppersurfer.tk%3A6969","udp%3A%2F%2Fexodus.desync.com%3A6969"],"infoHash":"4eb6a7a4a066e644268880207bafa466f08af0d4","infoHashBuffer":{"type":"Buffer","data":[78,182,167,164,160,102,230,68,38,136,128,32,123,175,164,102,240,138,240,212]},"announce":[],"urlList":[]}}